<svg id="visual" viewBox="0 0 675 300" width="675" height="300" xmlns="http://www.w3.org/2000/svg" xmlns:xlink="http://www.w3.org/1999/xlink" version="1.1"><path d="M0 79L12.5 78.8C25 78.7 50 78.3 75 75C100 71.7 125 65.3 150 66.2C175 67 200 75 225 74C250 73 275 63 300 60.3C325 57.7 350 62.3 375 63.3C400 64.3 425 61.7 450 65.5C475 69.3 500 79.7 525 78.8C550 78 575 66 600 59.5C625 53 650 52 662.5 51.5L675 51L675 0L662.5 0C650 0 625 0 600 0C575 0 550 0 525 0C500 0 475 0 450 0C425 0 400 0 375 0C350 0 325 0 300 0C275 0 250 0 225 0C200 0 175 0 150 0C125 0 100 0 75 0C50 0 25 0 12.5 0L0 0Z" fill="#a159f3"></path><path d="M0 53L12.5 53.5C25 54 50 55 75 51.2C100 47.3 125 38.7 150 41C175 43.3 200 56.7 225 63.5C250 70.3 275 70.7 300 71C325 71.3 350 71.7 375 70.5C400 69.3 425 66.7 450 63.5C475 60.3 500 56.7 525 53.7C550 50.7 575 48.3 600 46.8C625 45.3 650 44.7 662.5 44.3L675 44L675 0L662.5 0C650 0 625 0 600 0C575 0 550 0 525 0C500 0 475 0 450 0C425 0 400 0 375 0C350 0 325 0 300 0C275 0 250 0 225 0C200 0 175 0 150 0C125 0 100 0 75 0C50 0 25 0 12.5 0L0 0Z" fill="#7e46bd"></path><path d="M0 19L12.5 18.7C25 18.3 50 17.7 75 19C100 20.3 125 23.7 150 23.2C175 22.7 200 18.3 225 17.3C250 16.3 275 18.7 300 23.2C325 27.7 350 34.3 375 36.7C400 39 425 37 450 32.8C475 28.7 500 22.3 525 18.7C550 15 575 14 600 18.8C625 23.7 650 34.3 662.5 39.7L675 45L675 0L662.5 0C650 0 625 0 600 0C575 0 550 0 525 0C500 0 475 0 450 0C425 0 400 0 375 0C350 0 325 0 300 0C275 0 250 0 225 0C200 0 175 0 150 0C125 0 100 0 75 0C50 0 25 0 12.5 0L0 0Z" fill="#5c338a"></path></svg>